<svg width="1200" height="522" viewBox="0 0 1200 522" fill="none" xmlns="http://www.w3.org/2000/svg">
<path d="M461.716 93.2735C445.321 90.6908 444.031 107.091 449.453 113.289L534.329 162.618L619.205 211.948L613.073 222.601L606.941 233.255L624.497 243.456L642.053 253.658L648.121 242.94L654.188 232.222L656.124 233.255L662.256 222.601L668.388 211.948L666.709 210.785C668.431 207.858 672.467 200.945 674.842 196.71C669.162 185.553 673.078 170.194 675.746 163.91L669.549 160.423C661.804 168.171 648.895 175.532 639.859 176.178L635.728 183.409L631.597 190.641L546.657 141.957L461.716 93.2735Z" fill="#FFF7F7" stroke="#FFF7F7" stroke-width="7"/>
<path d="M539.7 272.711V279.684H487.35H435C442.342 315.116 527.076 329.569 568.525 332.367C617.515 355.868 584.166 391.377 572.015 395.251C566.937 396.87 566.285 401.449 566.586 403.515H560.511V422.755H598.707H636.904H675.1H713.296V403.128H704.894C705.618 398.996 702.869 397.016 701.404 396.542C637.679 356.384 703.602 287.689 765 290.143V272.711H708.675H652.35H596.025H539.7Z" fill="#FFF7F7" stroke="#FFF7F7" stroke-width="7"/>
<path d="M1089.55 370.579C1034.11 384.445 984.058 452.469 965.962 484.747C962.497 468.338 934.776 417.263 929.925 407.556C918.375 395.076 906.824 396.463 895.736 396.694C884.647 396.925 881.644 399.93 862.24 399.699C842.835 399.467 837.984 393.459 834.519 389.761C831.054 386.063 832.209 375.201 833.364 366.881C834.288 360.225 833.287 356.404 832.671 355.325C830.746 352.783 826.433 346.558 824.585 341.994C822.737 337.43 823.815 334.343 824.585 333.37C824.816 333.139 827.635 330.273 825.971 328.054C818.764 325.466 816.962 322.662 816.962 321.583V296.855C817.27 295.545 816.177 292.926 809.339 292.926C795.663 290.707 793.476 283.373 794.092 279.983C794.092 279.752 794.369 274.576 808.415 247.397C831.285 210.882 816.962 202.562 811.418 189.85C808.091 165.63 812.804 140.932 815.576 131.611C824.431 99.2553 866.86 34.036 965.731 32.0022C1111.91 31.4475 1150.15 136.849 1151 189.619L1150.95 190.302C1149.37 211.322 1148.62 221.254 1116.81 270.277C1080.08 314.419 1083.16 355.325 1089.55 370.579Z" stroke="#BB9C2E" stroke-width="7"/>
<path d="M869.275 142.354C866.649 146.691 865.331 155.358 865 159.15C867.57 160.168 873.932 162.662 878.818 164.494C878.635 170.174 880.065 176.175 880.803 178.465C878.538 180.068 872.955 184.068 868.741 187.244C870.695 192.863 875.357 199.459 877.444 202.055C879.556 201.088 885.246 198.482 891.109 195.795C894.957 200.07 899.889 203.022 901.874 203.964C901.39 207.068 900.255 214.361 899.584 218.698C903.676 220.896 912.384 222.566 916.226 223.126C917.015 221.141 919.188 215.522 921.57 208.926C927.617 209.231 933.2 207.73 935.236 206.941C936.89 209.308 940.977 215.11 944.092 219.385C950.993 216.575 956.841 212.209 958.902 210.376C957.808 207.933 955.039 201.78 952.718 196.711C957.36 192.13 959.895 187.83 960.582 186.252C963.712 186.786 971.056 188.038 975.392 188.771C978.263 182.542 979.54 174.928 979.82 171.899C976.919 170.78 970.064 168.159 965.849 166.632C966.155 160.83 964.806 155.206 964.094 153.119C966.638 151.287 972.629 146.935 976.232 144.187C974.156 138.079 969.514 131.819 967.453 129.452C964.424 130.827 957.482 133.972 953.94 135.56C949.97 131.59 945.364 128.46 943.557 127.391C944.117 123.752 945.344 115.695 945.771 112.581C940.152 109.893 932.386 108.407 929.205 108C927.881 111.461 924.991 119.085 924.013 121.894C916.562 121.894 911.595 123.218 910.043 123.879C907.803 120.775 902.897 113.985 901.187 111.664C894.957 113.68 888.666 118.357 886.3 120.444C887.699 123.498 890.896 130.445 892.484 133.804C887.781 138.324 884.926 143.016 884.086 144.797C880.269 144.136 871.963 142.721 869.275 142.354Z" fill="#FFF7F7"/>
<circle cx="922.486" cy="166.088" r="23.4374" fill="#1C1C1C"/>
<circle cx="922.41" cy="166.012" r="18.6278" fill="#FFF7F7"/>
<circle cx="922.486" cy="166.088" r="13.8181" fill="#1C1C1C"/>
<path d="M947 166C947 168.248 946.703 170.427 946.147 172.5C945.775 173.884 945.287 175.221 944.695 176.5C944.042 177.909 943.261 179.248 942.368 180.5C941.377 181.889 940.248 183.173 939 184.33C937.938 185.316 936.791 186.21 935.57 187C934.384 187.768 933.128 188.439 931.814 189C930.282 189.655 928.671 190.161 927 190.5C925.384 190.828 923.712 191 922 191C919.932 191 917.922 190.749 916 190.275C914.254 189.845 912.58 189.232 911 188.456C909.585 187.762 908.246 186.938 906.998 186C905.999 185.25 905.058 184.426 904.184 183.538C903.256 182.595 902.402 181.58 901.632 180.5C900.634 179.1 899.776 177.593 899.08 176C898.453 174.565 897.957 173.06 897.607 171.5C897.21 169.73 897 167.89 897 166C897 164.288 897.172 162.616 897.5 161C897.78 159.622 898.173 158.285 898.669 157C899.209 155.602 899.871 154.264 900.642 153C901.473 151.637 902.431 150.36 903.5 149.185C904.562 148.017 905.733 146.95 906.998 146C908.098 145.173 909.269 144.435 910.5 143.796C912.225 142.901 914.069 142.2 916 141.725C917.922 141.251 919.932 141 922 141C923.89 141 925.73 141.21 927.5 141.607C929.242 141.998 930.916 142.571 932.5 143.305C934.1 144.047 935.608 144.952 937.002 146C938.071 146.803 939.074 147.69 940 148.651C941.271 149.969 942.399 151.428 943.358 153C943.978 154.016 944.528 155.081 945 156.186C945.655 157.718 946.161 159.329 946.5 161C946.828 162.616 947 164.288 947 166Z" fill="#D9D9D9" fill-opacity="0.23"/>
<path d="M986.334 196.791C984.286 200.173 983.258 206.932 983 209.889C985.004 210.683 989.966 212.627 993.776 214.056C993.633 218.486 994.748 223.165 995.324 224.951C993.558 226.202 989.204 229.321 985.917 231.798C987.441 236.18 991.077 241.324 992.704 243.348C994.351 242.594 998.789 240.562 1003.36 238.466C1006.36 241.8 1010.21 244.102 1011.76 244.836C1011.38 247.257 1010.49 252.945 1009.97 256.327C1013.16 258.041 1019.95 259.343 1022.95 259.78C1023.56 258.232 1025.26 253.85 1027.12 248.706C1031.83 248.944 1036.19 247.773 1037.77 247.158C1039.06 249.004 1042.25 253.528 1044.68 256.862C1050.06 254.672 1054.62 251.266 1056.23 249.837C1055.38 247.932 1053.22 243.134 1051.41 239.18C1055.03 235.608 1057 232.254 1057.54 231.024C1059.98 231.441 1065.71 232.417 1069.09 232.989C1071.33 228.131 1072.32 222.193 1072.54 219.831C1070.28 218.958 1064.93 216.914 1061.65 215.723C1061.88 211.199 1060.83 206.813 1060.28 205.186C1062.26 203.757 1066.93 200.363 1069.74 198.22C1068.12 193.457 1064.5 188.575 1062.9 186.73C1060.54 187.801 1055.12 190.254 1052.36 191.492C1049.26 188.397 1045.67 185.956 1044.26 185.122C1044.7 182.284 1045.66 176.001 1045.99 173.572C1041.61 171.476 1035.55 170.318 1033.07 170C1032.04 172.699 1029.78 178.645 1029.02 180.835C1023.21 180.835 1019.34 181.867 1018.13 182.383C1016.38 179.962 1012.55 174.668 1011.22 172.858C1006.36 174.429 1001.46 178.077 999.61 179.704C1000.7 182.086 1003.19 187.503 1004.43 190.123C1000.77 193.648 998.539 197.307 997.884 198.696C994.907 198.18 988.43 197.077 986.334 196.791Z" fill="#FFF7F7"/>
<circle cx="1027.71" cy="215.314" r="18.2774" fill="#1C1C1C"/>
<circle cx="1027.65" cy="215.254" r="14.5267" fill="#FFF7F7"/>
<circle cx="1027.71" cy="215.314" r="10.7759" fill="#1C1C1C"/>
<path d="M1048 215.5C1048 217.344 1047.76 219.13 1047.3 220.83C1047 221.965 1046.6 223.062 1046.11 224.11C1045.57 225.266 1044.93 226.363 1044.2 227.39C1043.39 228.529 1042.46 229.582 1041.44 230.531C1040.57 231.339 1039.63 232.072 1038.63 232.72C1037.65 233.35 1036.62 233.9 1035.55 234.36C1034.29 234.897 1032.97 235.312 1031.6 235.59C1030.28 235.859 1028.9 236 1027.5 236C1025.8 236 1024.16 235.794 1022.58 235.406C1021.15 235.053 1019.78 234.55 1018.48 233.914C1017.32 233.345 1016.22 232.669 1015.2 231.9C1014.38 231.285 1013.61 230.61 1012.89 229.881C1012.13 229.108 1011.43 228.275 1010.8 227.39C1009.98 226.242 1009.28 225.007 1008.71 223.7C1008.19 222.523 1007.78 221.289 1007.5 220.01C1007.17 218.559 1007 217.049 1007 215.5C1007 214.096 1007.14 212.725 1007.41 211.4C1007.64 210.27 1007.96 209.174 1008.37 208.12C1008.81 206.973 1009.35 205.876 1009.99 204.84C1010.67 203.722 1011.45 202.675 1012.33 201.711C1013.2 200.754 1014.16 199.879 1015.2 199.1C1016.1 198.422 1017.06 197.817 1018.07 197.293C1019.48 196.559 1021 195.984 1022.58 195.594C1024.16 195.206 1025.8 195 1027.5 195C1029.05 195 1030.56 195.172 1032.01 195.498C1033.44 195.818 1034.81 196.288 1036.11 196.89C1037.42 197.498 1038.66 198.241 1039.8 199.1C1040.68 199.759 1041.5 200.486 1042.26 201.274C1043.3 202.355 1044.23 203.551 1045.01 204.84C1045.52 205.673 1045.97 206.546 1046.36 207.452C1046.9 208.709 1047.31 210.029 1047.59 211.4C1047.86 212.725 1048 214.096 1048 215.5Z" fill="#D9D9D9" fill-opacity="0.23"/>
<path d="M966.499 72.5259C964.601 75.9936 963.869 82.7913 963.74 85.7567C965.777 86.4623 970.818 88.1888 974.687 89.4501C974.738 93.8816 976.056 98.508 976.709 100.267C974.999 101.593 970.785 104.9 967.61 107.518C969.324 111.829 973.18 116.809 974.894 118.761C976.507 117.935 980.852 115.712 985.328 113.418C988.471 116.618 992.414 118.75 993.993 119.416C993.722 121.852 993.085 127.573 992.709 130.974C995.972 132.548 1002.81 133.552 1005.83 133.857C1006.37 132.284 1007.88 127.833 1009.51 122.613C1014.23 122.645 1018.53 121.285 1020.09 120.601C1021.46 122.389 1024.84 126.77 1027.41 129.995C1032.69 127.572 1037.1 123.97 1038.64 122.473C1037.71 120.607 1035.34 115.907 1033.36 112.036C1036.82 108.31 1038.65 104.873 1039.13 103.62C1041.59 103.93 1047.35 104.656 1050.75 105.079C1052.78 100.128 1053.51 94.1527 1053.63 91.7839C1051.33 91.0102 1045.9 89.2013 1042.57 88.1551C1042.61 83.6243 1041.36 79.2886 1040.74 77.687C1042.66 76.173 1047.18 72.5789 1049.89 70.3151C1048.07 65.6274 1044.24 60.908 1042.55 59.1343C1040.24 60.3079 1034.94 62.9946 1032.23 64.3523C1029 61.3944 1025.31 59.1124 1023.86 58.3412C1024.18 55.487 1024.86 49.1683 1025.08 46.727C1020.62 44.8244 1014.51 43.9308 1012.02 43.7218C1011.11 46.4632 1009.12 52.5015 1008.45 54.7235C1002.64 54.977 998.82 56.1769 997.633 56.7452C995.782 54.4026 991.729 49.2798 990.318 47.5298C985.533 49.312 980.791 53.17 979.018 54.8763C980.212 57.2078 982.939 62.5117 984.29 65.0748C980.78 68.7559 978.715 72.509 978.121 73.9254C975.125 73.5397 968.606 72.7199 966.499 72.5259Z" fill="#FFF7F7"/>
<circle cx="1008.92" cy="88.8855" r="14.6219" transform="rotate(-2.5 1008.92 88.8855)" fill="#1C1C1C"/>
<ellipse cx="1008.87" cy="88.8399" rx="11.6214" ry="11.6213" transform="rotate(-2.5 1008.87 88.8399)" fill="#FFF7F7"/>
<circle cx="1008.92" cy="88.8857" r="8.62076" transform="rotate(-2.5 1008.92 88.8857)" fill="#1C1C1C"/>
<path d="M1025 89C1025 90.4389 1024.81 91.8335 1024.45 93.16C1024.22 94.0461 1023.9 94.9017 1023.52 95.72C1023.11 96.622 1022.61 97.4785 1022.04 98.28C1021.4 99.1691 1020.68 99.9906 1019.88 100.731C1019.2 101.362 1018.47 101.934 1017.68 102.44C1016.93 102.932 1016.12 103.361 1015.28 103.72C1014.3 104.139 1013.27 104.463 1012.2 104.68C1011.17 104.89 1010.1 105 1009 105C1007.68 105 1006.39 104.839 1005.16 104.536C1004.04 104.261 1002.97 103.868 1001.96 103.372C1001.05 102.928 1000.2 102.4 999.398 101.8C998.759 101.32 998.157 100.793 997.597 100.224C997.004 99.621 996.457 98.9709 995.965 98.28C995.326 97.3842 994.777 96.4198 994.331 95.4C993.93 94.4817 993.613 93.5185 993.388 92.52C993.134 91.3874 993 90.2094 993 89C993 87.9041 993.11 86.834 993.32 85.8C993.499 84.9182 993.751 84.0627 994.068 83.24C994.414 82.345 994.837 81.4889 995.331 80.68C995.863 79.8076 996.476 78.9902 997.16 78.2381C997.84 77.4907 998.589 76.8079 999.398 76.2C1000.1 75.6708 1000.85 75.1984 1001.64 74.7896C1002.74 74.2164 1003.92 73.7683 1005.16 73.4638C1006.39 73.1607 1007.68 73 1009 73C1010.21 73 1011.39 73.1342 1012.52 73.3884C1013.64 73.6388 1014.71 74.0056 1015.72 74.4754C1016.74 74.9498 1017.71 75.5293 1018.6 76.2C1019.29 76.714 1019.93 77.2815 1020.52 77.8964C1021.33 78.7404 1022.06 79.6737 1022.67 80.68C1023.07 81.3305 1023.42 82.0116 1023.72 82.7188C1024.14 83.6994 1024.46 84.7303 1024.68 85.8C1024.89 86.834 1025 87.9041 1025 89Z" fill="#D9D9D9" fill-opacity="0.23"/>
<path d="M110.449 370.581C165.891 384.448 215.943 452.471 234.039 484.75C237.504 468.341 265.225 417.265 270.076 407.559C281.627 395.079 293.177 396.465 304.266 396.696C315.354 396.928 318.357 399.932 337.762 399.701C357.167 399.47 362.018 393.461 365.483 389.763C368.948 386.065 367.793 375.203 366.638 366.883C365.714 360.227 366.715 356.406 367.331 355.327C369.256 352.785 373.569 346.56 375.417 341.996C377.265 337.432 376.187 334.345 375.417 333.372C375.186 333.141 372.367 330.275 374.031 328.056C381.238 325.468 383.04 322.664 383.04 321.585V296.856C382.732 295.547 383.825 292.927 390.663 292.927C404.339 290.709 406.526 283.375 405.91 279.985C405.91 279.754 405.633 274.577 391.587 247.398C368.717 210.883 383.04 202.563 388.584 189.851C391.911 165.631 387.198 140.933 384.426 131.611C375.571 99.2557 333.142 34.036 234.27 32.0022C88.0868 31.4475 49.847 136.85 48.9999 189.62L49.0512 190.303C50.6295 211.323 51.3752 221.256 83.1894 270.278C119.92 314.421 116.84 355.327 110.449 370.581Z" stroke="#BB9C2E" stroke-width="7"/>
<path d="M193.595 296.758L212.108 315.002C214.039 272.621 217.787 258.91 224.147 252.224C243.91 243.952 237.095 232.847 239.707 228.994C307.172 247.465 308.762 198.625 313.532 195.566C342.04 192.733 338.292 179.928 342.267 176.415C360.553 165.537 351.581 151.712 353.171 147.066C358.395 116.584 333.749 108.878 330.683 104.345C316.94 82.3619 302.402 86.328 297.405 83.2685C272.531 65.931 253.223 73.5232 246.749 73.5232C222.671 63.7779 211.654 77.1493 204.953 78.9624C178.149 64.4578 161.226 93.2403 156.001 95.8466C124.427 107.065 126.585 129.275 122.837 135.168C110.389 141.967 106.974 156.131 106.823 162.364C92.8527 179.021 104.665 199.192 104.665 201.231C101.575 223.714 119.581 233.036 128.97 234.887C137.829 282.706 175.309 268.542 182.351 269.788C183.987 275.681 190.529 274.132 193.595 272.621V296.758Z" fill="#FFF7F7"/>
<path fill-rule="evenodd" clip-rule="evenodd" d="M217.239 185.022C216.472 184.811 214.902 183.939 214.752 182.142C214.726 181.829 214.736 181.388 214.75 180.823C214.831 177.343 215.022 169.166 207.452 157.247C200.414 146.166 198.655 142.398 198.655 141.899C197.282 136.72 197.157 124.117 207.639 115.132C218.121 106.147 230.226 107.52 234.967 109.33C240.333 110.328 251.776 115.544 254.621 128.422C257.214 140.157 250.652 149.606 246.492 155.596L246.492 155.597C246.087 156.18 245.705 156.731 245.356 157.247C244.233 158.351 238.079 170.312 238.079 182.142C237.992 182.52 237.971 182.801 237.954 183.044C237.91 183.643 237.883 184.009 236.904 185.022C235.625 185.379 234.126 185.651 232.514 185.837L233.194 172.098C232.825 172.34 232.094 172.521 231.161 172.643C229.057 172.92 225.926 172.902 223.609 172.643C222.479 172.517 221.542 172.333 221.011 172.098L221.877 185.878C220.152 185.692 218.561 185.406 217.239 185.022Z" fill="url(#paint0_radial_17_187)"/>
<path d="M217.239 185.022C218.561 185.406 220.152 185.692 221.877 185.878M217.239 185.022C216.472 184.811 214.902 183.939 214.752 182.142C214.726 181.829 214.736 181.388 214.75 180.823C214.831 177.343 215.022 169.166 207.452 157.247C200.414 146.166 198.655 142.398 198.655 141.899C197.282 136.72 197.157 124.117 207.639 115.132C218.121 106.147 230.226 107.52 234.967 109.33C240.333 110.328 251.776 115.544 254.621 128.422C257.214 140.157 250.652 149.606 246.492 155.596L246.492 155.597C246.087 156.18 245.705 156.731 245.356 157.247C244.233 158.351 238.079 170.312 238.079 182.142C237.992 182.52 237.971 182.801 237.954 183.044C237.91 183.643 237.883 184.009 236.904 185.022M217.239 185.022L217.747 186.447L216.25 188.067M216.25 188.067C222.001 189.434 230.213 189.906 238.079 188.067M216.25 188.067L217.747 189.629L216.25 191.174M216.25 191.174C224.042 192.417 230.362 192.466 238.079 191.174M216.25 191.174L217.56 192.811L216.497 194.281M216.497 194.281C222.001 195.275 231.858 195.374 237.399 194.281M216.497 194.281L220.742 198.879H222.001M222.001 198.879C224.042 199.252 229.879 199.277 232.205 198.879M222.001 198.879C222.205 199.29 222.838 200.373 223.737 201.421C226.133 202.469 229.102 201.858 230.288 201.421L232.205 198.879M232.205 198.879H233.283L237.399 194.281M237.399 194.281L236.652 192.624L238.079 191.174M238.079 191.174L236.652 189.442L238.079 188.067M238.079 188.067L236.465 186.26L236.904 185.022M236.904 185.022C235.625 185.379 234.126 185.651 232.514 185.837M221.877 185.878L221.011 172.098C221.542 172.333 222.479 172.517 223.609 172.643M221.877 185.878C225.247 186.242 229.127 186.228 232.514 185.837M232.514 185.837L233.194 172.098C232.825 172.34 232.094 172.521 231.161 172.643M223.609 172.643L216.682 141.899C222.805 145.068 233.565 145.229 239.502 141.899L231.161 172.643M223.609 172.643C225.926 172.902 229.057 172.92 231.161 172.643" stroke="black" stroke-width="2"/>
<defs>
<radialGradient id="paint0_radial_17_187" cx="0" cy="0" r="1" gradientUnits="userSpaceOnUse" gradientTransform="translate(230.195 142.815) rotate(1.9333) scale(44.3865 32.2074)">
<stop offset="0.164583" stop-color="#D9D9D9" stop-opacity="0"/>
<stop offset="0.73546" stop-color="#FFEA19"/>
</radialGradient>
</defs>
</svg>
