<svg width="61" height="61" viewBox="0 0 61 61" fill="none" xmlns="http://www.w3.org/2000/svg">
<path d="M34.1345 20.0792C35.9323 20.0859 37.6545 20.803 38.9257 22.0743C40.1969 23.3455 40.9141 25.0677 40.9208 26.8655" stroke="#FFF7F7" stroke-width="2" stroke-miterlimit="10"/>
<path d="M34.1345 11.9458C38.0914 11.9458 41.8863 13.5177 44.6843 16.3156C47.4822 19.1136 49.0541 22.9085 49.0541 26.8654" stroke="#FFF7F7" stroke-width="2" stroke-miterlimit="10"/>
<path d="M34.1345 3.8125C40.2485 3.8125 46.1121 6.24128 50.4354 10.5645C54.7587 14.8878 57.1874 20.7514 57.1874 26.8654" stroke="#FFF7F7" stroke-width="2" stroke-miterlimit="10"/>
<path d="M47.6564 54.3408C41.4801 60.4916 27.323 56.3487 15.9872 45.0129C4.65137 33.677 0.508453 19.52 6.65929 13.3437L13.4201 6.58289L26.4589 19.6216L21.5789 24.5525C20.598 25.5384 20.0473 26.8725 20.0473 28.2633C20.0473 29.6541 20.598 30.9882 21.5789 31.9741L29.026 39.4212C30.0119 40.4021 31.346 40.9528 32.7368 40.9528C34.1275 40.9528 35.4617 40.4021 36.4476 39.4212L41.3785 34.5412L54.4172 47.58L47.6564 54.3408Z" stroke="#FFF7F7" stroke-width="2" stroke-miterlimit="10"/>
</svg>
