<svg width="61" height="61" viewBox="0 0 61 61" fill="none" xmlns="http://www.w3.org/2000/svg">
<path d="M30.5001 37.7692C34.5148 37.7692 37.7693 34.5147 37.7693 30.5C37.7693 26.4854 34.5148 23.2308 30.5001 23.2308C26.4855 23.2308 23.231 26.4854 23.231 30.5C23.231 34.5147 26.4855 37.7692 30.5001 37.7692Z" stroke="#FFF7F7" stroke-width="2" stroke-miterlimit="10"/>
<path d="M37.7692 20.7908V36.0408C37.7692 37.1666 38.2164 38.2462 39.0124 39.0422C39.8084 39.8382 40.888 40.2854 42.0138 40.2854C42.7918 40.2932 43.5565 40.0831 44.2212 39.6788C44.886 39.2745 45.4244 38.6923 45.7754 37.9979C47.1866 35.1045 47.7421 31.8683 47.3767 28.67C46.9727 25.1448 45.4761 21.8344 43.0965 19.2024C40.7169 16.5704 37.5735 14.7488 34.1068 13.9927C30.64 13.2366 27.0236 13.584 23.7642 14.9861C20.5047 16.3883 17.7656 18.7749 15.9305 21.8118C14.0954 24.8486 13.2563 28.3834 13.5307 31.921C13.8051 35.4586 15.1793 38.8217 17.4608 41.5392C19.7423 44.2567 22.8167 46.1924 26.2534 47.0751C29.6901 47.9578 33.3168 47.7433 36.6254 46.4617" stroke="#FFF7F7" stroke-width="2" stroke-miterlimit="10"/>
<path d="M47.4783 3.8125H13.5217C8.15944 3.8125 3.8125 8.15944 3.8125 13.5217V47.4783C3.8125 52.8406 8.15944 57.1875 13.5217 57.1875H47.4783C52.8406 57.1875 57.1875 52.8406 57.1875 47.4783V13.5217C57.1875 8.15944 52.8406 3.8125 47.4783 3.8125Z" stroke="#FFF7F7" stroke-width="2" stroke-miterlimit="10"/>
</svg>
