<svg width="582" height="226" viewBox="0 0 582 226" fill="none" xmlns="http://www.w3.org/2000/svg">
<path d="M302.439 186.762L285.754 175.622L433.138 99.0402L581.218 177.479L564.533 186.762L433.138 118.534L302.439 186.762Z" fill="#090DC4" fill-opacity="0.3"/>
<path d="M442.917 225.434V172.613H484.117V225.434H442.917Z" fill="#090DC4" fill-opacity="0.3"/>
<path d="M381.467 225.434V172.613H422.667V225.434H381.467Z" fill="#090DC4" fill-opacity="0.3"/>
<path d="M150.506 86.2541L20.1137 153.748L0 144.106L150.506 66.9701L301.012 144.106L281.592 153.748L150.506 86.2541Z" fill="#090DC4" fill-opacity="0.3"/>
<path d="M159.938 195.251V142.429H201.137V195.251H159.938Z" fill="#090DC4" fill-opacity="0.3"/>
<path d="M98.4878 195.251V142.429H139.687V195.251H98.4878Z" fill="#090DC4" fill-opacity="0.3"/>
<path d="M259.472 5.31335V38.3268L297.619 18.0471V5.31335H259.472Z" fill="#090DC4" fill-opacity="0.3"/>
<path d="M359.967 19.284L229.574 86.7781L209.46 77.1361L359.967 0L510.473 77.1361L491.053 86.7781L359.967 19.284Z" fill="#090DC4" fill-opacity="0.3"/>
<path d="M370.785 115.346V72.6295H411.985V94.2174L370.785 115.346Z" fill="#090DC4" fill-opacity="0.3"/>
<path d="M309.335 125.451V72.6295H350.535V125.451H309.335Z" fill="#090DC4" fill-opacity="0.3"/>
</svg>
