<svg width="61" height="61" viewBox="0 0 61 61" fill="none" xmlns="http://www.w3.org/2000/svg">
<path d="M31.7709 3.81252C27.3847 3.81544 23.0739 4.95342 19.2577 7.11577C15.4416 9.27813 12.2499 12.3913 9.99324 16.1524C7.73655 19.9136 6.49161 24.1947 6.37949 28.5795C6.26737 32.9643 7.29189 37.3035 9.35341 41.175L6.35425 54.6458L19.8251 51.6467C23.2337 53.4679 27.0128 54.4878 30.8748 54.6289C34.7369 54.77 38.5803 54.0285 42.1127 52.4608C45.6451 50.8931 48.7735 48.5406 51.26 45.5821C53.7465 42.6235 55.5256 39.1369 56.462 35.3874C57.3983 31.6379 57.4673 27.7243 56.6637 23.9441C55.8601 20.1639 54.2051 16.6168 51.8245 13.5724C49.4438 10.5281 46.4003 8.06669 42.9254 6.37546C39.4504 4.68423 35.6356 3.8077 31.7709 3.81252Z" stroke="#FFF7F7" stroke-width="2" stroke-miterlimit="10"/>
<path d="M37.82 32.8638L45.0892 40.133C45.0892 40.133 35.4055 49.8167 23.3071 37.5913C11.2088 25.3659 20.7655 15.8092 20.7655 15.8092L28.0346 23.0784L27.9075 23.3325C27.2348 24.6675 27.0027 26.1814 27.2448 27.6566C27.4868 29.1318 28.1905 30.4922 29.2546 31.5421C30.3046 32.6062 31.665 33.3099 33.1401 33.552C34.6153 33.794 36.1293 33.562 37.4642 32.8892L37.82 32.8638Z" stroke="#FFF7F7" stroke-width="2" stroke-miterlimit="10"/>
</svg>
