<svg width="30" height="63" viewBox="0 0 30 63" fill="none" xmlns="http://www.w3.org/2000/svg">
<path d="M30 3.90496L29.7765 4.79008L29.5082 5.20661L7.01937 31.4479V31.6041L29.3294 57.481L29.6423 58.0017L29.8659 58.5744L29.9553 59.3554V60.0322L29.7765 60.9174L29.4635 61.6463L28.927 62.3231L28.2563 62.7397L27.5857 63H26.6915L26.4232 62.9479L25.7973 62.7397L25.2608 62.3231L0.625933 33.6868L0.447094 33.3223L0.134129 32.6455L0 31.9686V31.1876L0.0447102 30.719L0.268257 29.9901L0.581223 29.4174L25.2161 0.728926L25.5291 0.416529L26.0656 0.156198L26.6021 0H27.228L27.7198 0.0520661L28.4352 0.416529L28.927 0.833058L29.3294 1.24959L29.6423 1.77025L29.8659 2.55124L30 3.17603V3.90496Z" fill="#090DC4"/>
</svg>
