<svg width="55" height="55" viewBox="0 0 55 55" fill="none" xmlns="http://www.w3.org/2000/svg">
<mask id="mask0_64_591" style="mask-type:luminance" maskUnits="userSpaceOnUse" x="0" y="0" width="54" height="53">
<path d="M53.3757 0.0128937H0.575684V52.8129H53.3757V0.0128937Z" fill="white"/>
</mask>
<g mask="url(#mask0_64_591)">
<path d="M3.87549 15.9629C3.87549 22.255 10.1675 39.063 26.9756 39.063H31.1776V32.771H33.3776C36.0939 34.1233 38.2952 36.3244 39.6475 39.041H50.0756V36.973C47.8756 33.673 44.4655 31.363 41.6715 28.569C44.4213 25.8183 46.3752 22.3744 47.3256 18.6029L47.9855 15.9629H39.5816L39.3616 16.6229C38.1256 20.3188 36.038 23.6722 33.2676 26.413H31.1776V15.9629H20.6835V18.0529L22.7736 20.2529V28.613C20.2406 27.6263 18.0742 25.8817 16.57 23.6177C15.0659 21.3534 14.2973 18.6802 14.3695 15.9629H3.87549Z" stroke="#090DC4" stroke-width="1.91" stroke-miterlimit="10"/>
</g>
</svg>
